<?xml version="1.0" encoding="utf-8"?>
<!-- Generator: Adobe Illustrator 24.1.3, SVG Export Plug-In . SVG Version: 6.00 Build 0)  -->
<svg version="1.1" id="Ebene_1" xmlns="http://www.w3.org/2000/svg" xmlns:xlink="http://www.w3.org/1999/xlink" x="0px" y="0px"
	 viewBox="0 0 1280 1024" style="enable-background:new 0 0 1280 1024;" xml:space="preserve">
<style type="text/css">
	.st0{stroke:#000000;stroke-width:0.25;stroke-miterlimit:10;}
</style>
<path class="st0" d="M706.2,386.44c89.43,0,152.58,66.35,144.19,160.84c45.2-1.09,114.82,17.82,114.82,88.25
	c0,45.78-40.66,83.03-90.65,83.03h-336.7c-49.99,0-90.65-37.24-90.65-83.03c0-66.35,64.21-90.93,114.82-88.25
	C557.68,447.22,619.2,386.44,706.2,386.44z M706.2,339c-103.76,0-188.22,74.51-193.71,168.24c-66.56,10.98-117.1,64.19-117.1,128.29
	c0,72.04,63.79,130.47,142.45,130.47h336.7c78.66,0,142.45-58.43,142.45-130.47c0-64.1-50.53-117.31-117.1-128.29
	C894.41,413.51,809.95,339,706.2,339z M811.75,718.93H591.96v-140.2h54.95v46.73l54.95-31.15v31.22l54.95-31.22v31.29l54.95-31.29
	V718.93z M628.59,594.31h-18.32v109.04h183.15v-77.89l-54.95,31.15v-31.15l-54.95,31.15v-31.15l-54.95,31.15V594.31z M729.33,687.77
	h-18.32v-23.37h18.32V687.77z M692.7,687.77h-18.32v-23.37h18.32V687.77z M656.07,687.77h-18.32v-23.37h18.32V687.77z
	 M765.96,687.77h-18.32v-23.37h18.32V687.77z M620.65,571h-22.37c4.43-41.52,39.93-76.11,78.3-76.11c5.5,0,10.69,1.12,15.28,3.12
	c7.07-13.07,22.62-22.15,40.65-22.15c18.03,0,33.58,9.08,40.65,22.15c4.59-2,9.78-3.12,15.28-3.12c18.52,0,33.56,12.79,33.56,28.54
	c0,15.75-15.03,28.54-33.56,28.54c-5.5,0-10.69-1.12-15.28-3.12c-7.07,13.07-22.62,22.15-40.65,22.15
	C680.05,571,649.24,514.85,620.65,571z" fill="rgb(143, 0, 205)"/>
</svg>
